<svg width="114" height="111" fill="none" xmlns="http://www.w3.org/2000/svg"><path d="M57.143 0a56.958 56.958 0 00-37.027 13.492A56.865 56.865 0 00.733 47.78a56.836 56.836 0 007.553 38.648 56.92 56.92 0 0030.868 24.485c2.846.455 3.757-1.308 3.757-2.844v-9.612c-15.77 3.412-19.128-7.451-19.128-7.451a15.301 15.301 0 00-6.49-8.532c-5.18-3.526.399-3.413.399-3.413a11.963 11.963 0 018.71 5.688 12.25 12.25 0 0016.566 4.72 12.28 12.28 0 013.586-7.62c-12.182-1.252-25.731-6.143-25.731-27.814a22 22 0 015.693-15.414 20.345 20.345 0 01.569-15.015s4.782-1.536 15.655 5.687a54.868 54.868 0 0128.464 0c10.873-7.337 15.655-5.687 15.655-5.687a20.346 20.346 0 01.57 15.015 22 22 0 015.692 15.414c0 21.727-13.32 26.505-26.016 27.927a13.592 13.592 0 013.928 10.523v15.584c0 1.536.911 3.356 3.814 2.844a56.919 56.919 0 0030.83-24.424 56.83 56.83 0 007.612-38.568 56.865 56.865 0 00-19.242-34.289A56.958 56.958 0 0057.143.001z" fill="#fff"/></svg>
