<svg width="20" height="19" viewBox="0 0 20 19" fill="none" xmlns="http://www.w3.org/2000/svg">
<path d="M9.99986 17.92C14.4954 17.92 18.1399 14.2756 18.1399 9.78C18.1399 5.2844 14.4954 1.64 9.99986 1.64C5.50427 1.64 1.85986 5.2844 1.85986 9.78C1.85986 14.2756 5.50427 17.92 9.99986 17.92Z" stroke="black" stroke-width="2" stroke-linecap="round" stroke-linejoin="round"/>
<path d="M10.8194 6.17204C10.8147 6.38523 10.7262 6.58799 10.573 6.73628C10.4197 6.88457 10.2141 6.96638 10.0009 6.96401C9.84549 6.95883 9.6951 6.90804 9.56838 6.81791C9.44157 6.7278 9.34425 6.60234 9.28837 6.45725C9.2324 6.31215 9.22043 6.1538 9.25396 6.00193C9.2874 5.85008 9.36484 5.71149 9.4766 5.60335C9.58836 5.49521 9.72942 5.42236 9.88228 5.39388C10.0351 5.3654 10.1931 5.38254 10.3363 5.44319C10.4794 5.50383 10.6016 5.60527 10.6875 5.73489C10.7735 5.8645 10.8193 6.01654 10.8194 6.17204ZM9.37619 13.5465V8.81208C9.37381 8.72892 9.38825 8.64611 9.41869 8.56876C9.44914 8.49141 9.4949 8.42101 9.55333 8.36187C9.61168 8.30265 9.68146 8.25583 9.75837 8.22433C9.83529 8.19283 9.91783 8.17716 10.0009 8.17839C10.0829 8.17831 10.1641 8.19485 10.2396 8.22706C10.315 8.25918 10.3832 8.30626 10.4399 8.36548C10.4967 8.42471 10.5408 8.49476 10.5697 8.57149C10.5987 8.64823 10.6117 8.73007 10.6081 8.81208V13.5465C10.6081 13.6274 10.5922 13.7074 10.5613 13.7821C10.5303 13.8569 10.4849 13.9248 10.4277 13.982C10.3705 14.0392 10.3027 14.0845 10.2279 14.1155C10.1531 14.1465 10.0731 14.1624 9.99219 14.1624C9.91132 14.1624 9.83115 14.1465 9.75644 14.1155C9.68173 14.0845 9.61379 14.0392 9.55659 13.982C9.49939 13.9248 9.45398 13.8569 9.42309 13.7821C9.39212 13.7074 9.37619 13.6274 9.37619 13.5465Z" fill="black"/>
</svg>
