<svg width="40" height="40" fill="none" xmlns="http://www.w3.org/2000/svg"><path d="M20 0c-5.432 0-6.112.024-8.246.12-2.128.098-3.582.436-4.854.93a9.802 9.802 0 00-3.544 2.306A9.804 9.804 0 001.05 6.9C.556 8.172.218 9.626.12 11.754.022 13.888 0 14.568 0 20s.022 6.112.12 8.246c.098 2.128.436 3.582.93 4.854a9.806 9.806 0 002.306 3.544A9.806 9.806 0 006.9 38.95c1.272.494 2.726.832 4.854.93 2.134.096 2.814.12 8.246.12s6.112-.024 8.246-.12c2.128-.098 3.582-.436 4.854-.93a9.804 9.804 0 003.544-2.306A9.804 9.804 0 0038.95 33.1c.494-1.272.832-2.726.93-4.854.096-2.134.12-2.814.12-8.246s-.024-6.112-.12-8.246c-.098-2.128-.436-3.582-.93-4.854a9.805 9.805 0 00-2.306-3.544A9.802 9.802 0 0033.1 1.05C31.828.556 30.374.218 28.246.12 26.112.024 25.432 0 20 0zm0 3.604c5.34 0 5.972.02 8.08.116 1.952.09 3.01.414 3.716.688.932.364 1.6.798 2.3 1.496.7.7 1.132 1.368 1.496 2.3.272.706.6 1.764.688 3.714.096 2.11.116 2.74.116 8.082 0 5.34-.02 5.972-.116 8.08-.09 1.952-.416 3.01-.688 3.716a6.199 6.199 0 01-1.496 2.3c-.7.7-1.368 1.132-2.3 1.496-.706.272-1.764.6-3.714.688-2.108.096-2.74.116-8.082.116-5.34 0-5.974-.02-8.08-.116-1.952-.09-3.01-.416-3.716-.688a6.196 6.196 0 01-2.3-1.496 6.196 6.196 0 01-1.496-2.3c-.274-.706-.6-1.764-.688-3.714-.096-2.11-.116-2.74-.116-8.082 0-5.34.02-5.972.116-8.08.09-1.952.414-3.01.688-3.716.364-.932.798-1.6 1.496-2.3.7-.7 1.368-1.132 2.3-1.496.706-.274 1.764-.6 3.714-.688 2.11-.096 2.74-.116 8.082-.116zm0 23.062a6.666 6.666 0 110-13.332 6.666 6.666 0 010 13.332zM20 9.73a10.27 10.27 0 100 20.54 10.27 10.27 0 000-20.54zm13.076-.406a2.4 2.4 0 11-4.8 0 2.4 2.4 0 014.8 0z" fill="#fff"/></svg>
