<svg width="40" height="40" fill="none" xmlns="http://www.w3.org/2000/svg"><path d="M36.8.004H3.424A3.275 3.275 0 000 3.128v33.447A3.524 3.524 0 003.425 40h33.374a3.35 3.35 0 003.2-3.425V3.128A3.075 3.075 0 0036.8.004zM12.5 33.35H6.675V15.527H12.5v17.824zM9.725 12.827a2.95 2.95 0 01-3.05-3.074 2.949 2.949 0 013.1-3.075 2.95 2.95 0 013.05 3.075 2.949 2.949 0 01-3.1 3.074zm23.624 20.524H27.5V23.6c0-2.324-.825-3.924-2.9-3.924a3.123 3.123 0 00-2.925 2.1c-.162.456-.23.94-.2 1.424v10.15h-5.75V15.527h5.75v2.5a5.8 5.8 0 015.25-3.025c3.775 0 6.625 2.5 6.625 7.825V33.35z" fill="#fff"/></svg>
