<svg width="37" height="30" viewBox="0 0 37 30" fill="none" xmlns="http://www.w3.org/2000/svg">
<path d="M5.36608 30C4.72939 30.0006 4.09275 29.9882 3.45658 29.9628L3.15906 29.8964C2.39038 29.7206 1.69008 29.3299 1.14287 28.7716C0.595669 28.2134 0.225009 27.5114 0.075731 26.7507L0.0270468 26.5065C0.0135234 26.2251 0 25.4287 0 24.7358V1.26095C0.00142802 0.926496 0.137612 0.606181 0.378819 0.369934C0.620027 0.133687 0.946667 0.000698228 1.28743 0H30.049C30.3895 0.000701385 30.7158 0.133776 30.9566 0.370098C31.1974 0.60642 31.333 0.92674 31.3337 1.26095V5.31988H35.6368C35.9979 5.32128 36.3438 5.46268 36.5992 5.71329C36.8545 5.9639 36.9986 6.3034 37 6.65781V25.7499C37 26.8764 36.5441 27.9567 35.7325 28.7533C34.9209 29.5498 33.8202 29.9973 32.6725 29.9973L5.36608 30ZM5.36608 27.056H28.5506C28.4123 26.6348 28.3421 26.195 28.3423 25.7526V19.9814C28.3371 19.885 28.3344 19.7885 28.3342 19.692V2.94133H2.99949V24.7358C2.99949 25.3146 3.0076 25.8773 3.01572 26.18L3.02113 26.2012C3.06148 26.401 3.15937 26.5852 3.3032 26.732C3.44702 26.8788 3.63073 26.982 3.83253 27.0294L3.85958 27.0348C4.2193 27.0454 4.82785 27.056 5.36608 27.056ZM25.0183 7.58162H6.19371V10.5256H25.0183V7.58162ZM14.1996 13.9076H6.19371V23.2838H14.1996V13.9076ZM25.0237 13.9766H17.2369V16.9206H25.021L25.0237 13.9766ZM25.0237 20.3743H17.2369V23.3156H25.021L25.0237 20.3743ZM31.3418 8.26121V25.7526C31.3418 26.099 31.482 26.4312 31.7316 26.6761C31.9811 26.921 32.3196 27.0586 32.6725 27.0586C33.0254 27.0586 33.3639 26.921 33.6135 26.6761C33.863 26.4312 34.0032 26.099 34.0032 25.7526V8.25855L31.3418 8.26121Z" fill="black"/>
</svg>
