<svg width="20" height="20" fill="none" xmlns="http://www.w3.org/2000/svg"><path d="M16.638 11.68a1.362 1.362 0 01-.899 1.29l-4.48 1.65-1.65 4.48a1.374 1.374 0 01-2.58 0l-1.65-4.48L.9 12.97a1.374 1.374 0 010-2.579l4.48-1.65 1.65-4.48a1.374 1.374 0 012.58 0l1.65 4.48 4.48 1.65a1.362 1.362 0 01.9 1.29zm-4.883-8.244h1.374V4.81a.687.687 0 001.374 0V3.436h1.374a.687.687 0 100-1.375h-1.374V.687a.687.687 0 10-1.374 0v1.374h-1.374a.687.687 0 100 1.375zm7.558 2.748h-.687v-.687a.687.687 0 00-1.375 0v.687h-.687a.687.687 0 100 1.374h.688v.687a.687.687 0 101.374 0v-.687h.687a.687.687 0 100-1.374z" fill="#fff"/></svg>
