<svg width="20" height="20" fill="none" xmlns="http://www.w3.org/2000/svg"><path d="M19.575 15.456l-4.574-4.574a2.9 2.9 0 00-3.336-.543L7.502 6.175V3.75l-5-3.75-2.5 2.5 3.75 5h2.425l4.164 4.163A2.907 2.907 0 0010.884 15l4.574 4.574c.57.57 1.492.57 2.059 0l2.058-2.058a1.46 1.46 0 000-2.059zM12.958 8.79a4.11 4.11 0 012.926 1.21l.758.758a5.53 5.53 0 001.71-1.152 5.617 5.617 0 001.48-5.34.468.468 0 00-.784-.214l-2.906 2.906-2.652-.442-.442-2.652L15.954.957a.472.472 0 00-.223-.789 5.627 5.627 0 00-5.335 1.48C9.283 2.762 8.759 4.23 8.786 5.695l3.207 3.207c.317-.074.645-.113.965-.113zM8.9 11.992L6.685 9.777.732 15.734a2.499 2.499 0 103.535 3.534l4.828-4.827c-.297-.778-.386-1.625-.195-2.45zm-6.398 6.444a.94.94 0 01-.938-.937c0-.52.418-.937.938-.937s.937.418.937.937a.938.938 0 01-.937.938z" fill="#000"/></svg>
