<svg width="40" height="33" fill="none" xmlns="http://www.w3.org/2000/svg"><path d="M9.21 25.494a30.732 30.732 0 01-8.191-14.128c2.181.563 4.272.85 6.22.85h.001c9.023-.001 12.88-6.018 13.847-7.862l.214-.408h-6.257v-.213c0-2.058 1.66-3.733 3.699-3.733h7.909c.056 1.01.137 4.952-1.555 9.596-1.794 4.922-6.006 11.661-15.887 15.898z" fill="#fff"/><path d="M9.694 8.664c-4.935 0-8.924-2.129-9.578-2.5A31.106 31.106 0 010 3.482V0h7.855c.925 5.024 5.344 7.087 7.13 7.724-1.64.624-3.417.94-5.291.94zM31.49 7.67c-.885 0-1.797-.074-2.722-.22 1.427-.82 4.486-3.027 5.826-7.45H40v3.891c0 .281-.003.562-.013.841-.465.448-3.317 2.938-8.496 2.938zM20.054 32.353a30.288 30.288 0 01-6.93-3.608c8.696-4.326 11.787-11.849 12.74-15.025.28 3.437.32 12.171-5.393 18.785l-.417-.152zM27.276 28.87c3.168-7.837 1.201-16.48.636-18.595.934.245 3.111.733 5.609.733 2.32 0 4.31-.423 5.922-1.258-1.478 7.678-5.87 14.571-12.167 19.12z" fill="#fff"/></svg>
