<svg width="40" height="29" fill="none" xmlns="http://www.w3.org/2000/svg"><path d="M38.44 2.465C36.998.715 34.332 0 29.24 0H10.76C5.551 0 2.84.76 1.401 2.625 0 4.442 0 7.12 0 10.827v7.064c0 7.181 1.664 10.827 10.76 10.827h18.48c4.415 0 6.862-.63 8.444-2.176C39.307 24.958 40 22.371 40 17.892v-7.065c0-3.91-.108-6.603-1.56-8.362zm-12.76 12.87l-8.392 4.474a1.268 1.268 0 01-1.266-.04 1.323 1.323 0 01-.622-1.127v-8.92c0-.46.235-.886.62-1.125a1.268 1.268 0 011.265-.043l8.392 4.445c.427.227.695.676.696 1.167 0 .49-.267.941-.693 1.168z" fill="#fff"/></svg>
